<svg xmlns="http://www.w3.org/2000/svg" viewBox="0 0 293.953 293.953">
  <path d="M219.602 99.555h-65.125v-19.43c0-18.985-15.445-34.43-34.43-34.43H85.424c-4.143 0-7.5 3.357-7.5 7.5s3.357 7.5 7.5 7.5h34.623c10.714 0 19.43 8.716 19.43 19.43v19.43H74.352C33.354 99.555 0 132.91 0 173.905c0 41 33.354 74.354 74.352 74.354 29.215 0 55.804-17.357 67.75-43.694h9.75c11.946 26.338 38.534 43.692 67.75 43.692 40.998 0 74.352-33.356 74.352-74.354 0-40.997-33.354-74.35-74.352-74.35zm0 133.704c-24.74 0-47.122-15.59-55.69-38.793-1.09-2.946-3.897-4.902-7.036-4.902H137.08c-3.14 0-5.947 1.956-7.035 4.9-8.57 23.203-30.952 38.792-55.693 38.792-32.727 0-59.352-26.625-59.352-59.352s26.625-59.352 59.352-59.352h145.25c32.727 0 59.352 26.625 59.352 59.352s-26.626 59.353-59.352 59.353z"/>
  <path d="M101.957 166.406H81.852V146.07c0-4.142-3.357-7.5-7.5-7.5s-7.5 3.358-7.5 7.5v20.336H46.746c-4.143 0-7.5 3.358-7.5 7.5 0 4.142 3.357 7.5 7.5 7.5H66.85v20.337c0 4.142 3.358 7.5 7.5 7.5s7.5-3.358 7.5-7.5v-20.337h20.106c4.143 0 7.5-3.358 7.5-7.5 0-4.142-3.356-7.5-7.5-7.5z"/>
  <circle cx="219.602" cy="148.203" r="10.668"/>
  <circle cx="219.602" cy="199.608" r="10.668"/>
  <circle cx="245.305" cy="173.907" r="10.668"/>
  <circle cx="193.898" cy="173.907" r="10.668"/>
</svg>